<svg width="31" height="29" viewBox="0 0 31 29" fill="none" xmlns="http://www.w3.org/2000/svg">
<path d="M10.9788 25.5851L22.1845 15.1328C22.2919 15.0323 22.3671 14.9267 22.41 14.816C22.4534 14.7053 22.4751 14.5794 22.4751 14.4383C22.4751 14.2971 22.4534 14.1712 22.41 14.0605C22.3671 13.9499 22.2919 13.8442 22.1845 13.7437L10.9788 3.26094C10.7204 3.01927 10.3975 2.89844 10.01 2.89844C9.6225 2.89844 9.28899 3.02942 9.00947 3.29139C8.72944 3.55335 8.58943 3.86051 8.58943 4.21286C8.58943 4.56521 8.72944 4.87237 9.00947 5.13434L18.955 14.4383L9.00947 23.7422C8.75114 24.0042 8.62197 24.3113 8.62197 24.6637C8.62197 25.016 8.76173 25.3232 9.04125 25.5851C9.32128 25.8471 9.64962 25.9781 10.0263 25.9781C10.4029 25.9781 10.7204 25.8471 10.9788 25.5851Z" fill="black"/>
</svg>
