<svg width="12" height="13" viewBox="0 0 12 13" fill="none" xmlns="http://www.w3.org/2000/svg">
<path d="M2.36117 11.6074C2.24398 11.666 2.13656 11.6953 2.03891 11.6953C1.785 11.6953 1.54086 11.5781 1.30648 11.3438C1.07211 11.1289 0.954922 10.875 0.954922 10.582C0.954922 10.3477 1.05258 10.1426 1.24789 9.9668C1.93148 9.32227 2.59555 8.67773 3.24008 8.0332C3.90414 7.36914 4.53891 6.70508 5.14438 6.04102C4.46078 5.2793 3.88461 4.63477 3.41586 4.10742C2.94711 3.56055 2.56625 3.11133 2.27328 2.75977C1.98031 2.4082 1.76547 2.125 1.62875 1.91016C1.51156 1.67578 1.45297 1.48047 1.45297 1.32422C1.45297 1.01172 1.55063 0.767578 1.74594 0.591797C1.94125 0.396484 2.17563 0.298828 2.44906 0.298828C2.76156 0.298828 3.0643 0.455078 3.35727 0.767578L6.52133 4.54688C7.14633 3.84375 7.74203 3.16016 8.30844 2.49609C8.89438 1.83203 9.45102 1.17773 9.97836 0.533203C10.1932 0.259766 10.4569 0.123047 10.7694 0.123047C11.0428 0.123047 11.287 0.230469 11.5018 0.445312C11.7362 0.660156 11.8534 0.953125 11.8534 1.32422C11.8534 1.57812 11.7069 1.91016 11.4139 2.32031C11.1209 2.71094 10.7596 3.14062 10.3299 3.60938C9.91977 4.05859 9.48031 4.50781 9.01156 4.95703C8.56234 5.40625 8.18148 5.80664 7.86898 6.1582L11.5604 10.5527C11.7362 10.7285 11.8241 10.9336 11.8241 11.168C11.8241 11.4414 11.7069 11.6855 11.4725 11.9004C11.2381 12.1152 11.0038 12.2227 10.7694 12.2227C10.5741 12.2227 10.3006 12.0664 9.94906 11.7539C9.61703 11.4414 9.2557 11.0605 8.86508 10.6113C8.47445 10.1426 8.0643 9.64453 7.63461 9.11719C7.22445 8.57031 6.83383 8.0625 6.46273 7.59375C5.75961 8.29688 5.06625 8.99023 4.38266 9.67383C3.69906 10.3574 3.02523 11.002 2.36117 11.6074Z" fill="#6F6F6F"/>
</svg>
